# xmcd CD database file
#
# Track frame offsets:
#	150
#	15826
#	29851
#	44852
#	65249
#	84009
#	97772
#	112756
#	132071
#	143181
#	154730
#	169877
#	188330
#	202664
#	223010
#	241488
#
# Disc length: 3491 seconds
#
# Revision: 0
# Processed by: cddbd v1.5.2PL0 Copyright (c) Steve Scherf et al.
# Submitted via: jetAudio 7
#
DISCID=ce0da110
DTITLE=Juanita du Plessis - Dis Waar Ek Wil Wees
DYEAR=2002
DGENRE=Pop
TTITLE0=Dis Waar Ek wil Wees
TTITLE1=Patayo Keurspel - Badayo, Meisie Sonder Sokkies, Patayo
TTITLE2=Bongo Man
TTITLE3=Heartbreak Angel
TTITLE4=Ek Soek Na Jou
TTITLE5=Amajuba
TTITLE6=Mama He's Crazy
TTITLE7=Afrikaanse Keurspel - Blou Bul, Met Jou In My Lewe, Neem My Op 
TTITLE7=Vlerke
TTITLE8=Georgie
TTITLE9=Dis Net Jy
TTITLE10=Whole Again
TTITLE11=One Way
TTITLE12=Darling
TTITLE13=English Medley - You're My Mate, Hey Baby, Can't Get You Out O
TTITLE13=f My Hea
TTITLE14=I Think Of You
TTITLE15=Dagboek Van 'n Ma
EXTD=
EXTT0=
EXTT1=
EXTT2=
EXTT3=
EXTT4=
EXTT5=
EXTT6=
EXTT7=
EXTT8=
EXTT9=
EXTT10=
EXTT11=
EXTT12=
EXTT13=
EXTT14=
EXTT15=
PLAYORDER=
